<svg width="96" height="96" viewBox="0 0 480 480" fill="none" xmlns="http://www.w3.org/2000/svg">
<path d="M68.0272 308.827C60.0454 308.827 52.9705 306.77 46.8027 302.655C40.6349 306.77 34.8904 308.827 29.5692 308.827C24.3689 308.827 20.0756 308.313 16.6893 307.284C13.3031 306.384 10.3401 305.098 7.80045 303.426C2.60015 300.083 0 295.903 0 290.888C0 288.316 0.665155 286.066 1.99546 284.137C4.65608 286.323 8.04233 287.416 12.1542 287.416C22.9176 287.416 30.3553 282.529 34.4671 272.756V178.429C34.4671 172.514 33.3182 168.141 31.0204 165.312C27.3923 160.554 21.164 155.86 12.3356 151.231C20.5593 147.244 25.8806 143.708 28.2993 140.622C32.4112 135.606 34.4671 129.948 34.4671 123.647V42.2443C30.3553 32.3423 22.9176 27.3913 12.1542 27.3913C8.04233 27.3913 4.65608 28.4844 1.99546 30.6705C0.665155 28.7416 0 26.5554 0 24.1121C0 21.5401 0.665155 19.1611 1.99546 16.9749C3.44671 14.7887 5.38171 12.9241 7.80045 11.3809C13.3636 7.78016 19.7128 5.97979 26.8481 5.97979C34.1043 5.97979 40.7559 8.10165 46.8027 12.3454C53.0915 8.10165 60.2872 5.97979 68.39 5.97979C76.4928 5.97979 83.87 8.48745 90.5215 13.5028C103.341 8.48745 118.156 5.97979 134.966 5.97979C147.423 5.97979 158.065 7.26577 166.893 9.83772L183.039 14.4672C184.974 14.9816 186.848 15.2388 188.662 15.2388C192.048 15.2388 193.742 12.6669 193.742 7.52296C193.742 6.23699 193.318 4.05083 192.472 0.964483C195.858 0.321494 200.151 0 205.351 0C210.552 0 214.966 1.86467 218.594 5.594C222.222 9.19473 224.036 14.4672 224.036 21.4115C224.036 28.2272 222.887 33.2425 220.59 36.4574C223.855 41.6013 225.488 47.9026 225.488 55.3613C225.488 62.6914 223.129 68.8641 218.413 73.8794C219.864 77.7373 220.59 81.5309 220.59 85.2603C220.59 88.861 219.985 92.2045 218.776 95.2909C217.687 98.2486 216.296 100.756 214.603 102.814C211.217 106.543 207.77 108.408 204.263 108.408C199.184 108.408 194.588 107.25 190.476 104.936C191.927 101.849 192.653 97.2841 192.653 91.2401C192.653 77.0943 189.327 64.6846 182.676 54.011C173.605 39.3509 160 32.0208 141.859 32.0208C132.668 32.0208 124.324 34.3999 116.825 39.158C109.448 43.9161 104.248 50.7318 101.224 59.605V134.256C105.457 137.085 109.388 138.5 113.016 138.5C116.765 138.5 119.546 138.435 121.361 138.307C123.296 138.178 125.231 137.921 127.166 137.535C132.124 136.764 135.933 135.735 138.594 134.449C143.673 131.877 146.213 125.576 146.213 115.545C146.213 109.887 144.943 105.514 142.404 102.428C144.822 100.628 147.846 99.7275 151.474 99.7275C159.577 99.7275 165.442 103.2 169.07 110.144C170.401 112.587 171.066 115.288 171.066 118.246C171.066 121.203 170.34 124.868 168.889 129.241C173.847 135.285 176.327 142.486 176.327 150.845C176.327 159.075 173.847 166.212 168.889 172.257C170.34 176.629 171.066 180.615 171.066 184.216C171.066 187.688 170.401 191.032 169.07 194.247C167.74 197.462 166.107 200.034 164.172 201.963C160.423 205.563 156.19 207.364 151.474 207.364C148.088 207.364 145.064 206.335 142.404 204.277C144.943 199.776 146.213 194.504 146.213 188.46C146.213 176.5 143.129 169.106 136.961 166.277C131.519 163.962 125.291 162.805 118.277 162.805C111.262 162.805 105.578 164.155 101.224 166.855V263.304C108.239 276.421 121.784 282.979 141.859 282.979C164.596 282.979 180.076 275.521 188.299 260.603C197.853 243.5 202.63 225.175 202.63 205.628C202.63 199.969 202.147 195.597 201.179 192.511C204.203 189.296 207.347 187.688 210.612 187.688C213.878 187.688 216.357 188.203 218.05 189.231C219.743 190.132 221.255 191.289 222.585 192.704C225.488 196.176 226.939 199.712 226.939 203.313L225.85 212.765C225.85 215.208 226.455 217.201 227.664 218.745C230.083 221.445 231.293 224.017 231.293 226.461C231.293 228.775 230.567 231.604 229.116 234.948C231.897 236.62 234.376 239.127 236.553 242.471C238.851 245.686 240 249.029 240 252.502C240 259.832 237.098 266.39 231.293 272.177C233.832 276.035 235.102 281.629 235.102 288.959C235.102 296.16 233.107 302.269 229.116 307.284C225.246 312.428 220.166 315 213.878 315C210.491 315 206.984 314.614 203.356 313.843C203.84 311.013 204.082 308.184 204.082 305.355C204.082 299.44 201.542 296.482 196.463 296.482C190.779 296.482 185.094 297.704 179.41 300.147C165.986 305.934 150.688 308.827 133.515 308.827C116.463 308.827 101.95 306.448 89.9773 301.69C83.6886 306.448 76.3719 308.827 68.0272 308.827ZM51.8821 253.852C57.929 251.408 61.2547 242.985 61.8594 228.582C62.585 214.179 62.9478 194.247 62.9478 168.784C62.9478 143.322 62.8874 126.412 62.7664 118.053C62.7664 109.565 62.706 102.75 62.585 97.6056C62.2222 82.4311 60.8314 73.3007 58.4127 70.2143C56.1149 66.9994 53.938 64.8775 51.8821 63.8487C51.8821 108.601 51.1565 134.063 49.7052 140.236C48.0121 145.38 43.9002 149.045 37.3696 151.231C44.6259 153.931 48.7377 157.211 49.7052 161.069C51.1565 167.241 51.8821 189.81 51.8821 228.775V253.852ZM97.5964 251.923C97.5964 252.309 97.6568 252.63 97.7778 252.887L97.5964 251.923Z" fill="#04805E"/>
<path d="M302.327 478.019C295.014 478.019 288.532 475.906 282.881 471.679C277.23 475.906 271.967 478.019 267.091 478.019C262.327 478.019 258.393 477.491 255.291 476.434C252.188 475.509 249.474 474.189 247.147 472.472C242.382 469.038 240 464.745 240 459.594C240 456.953 240.609 454.642 241.828 452.66C244.266 454.906 247.368 456.028 251.136 456.028C260.997 456.028 267.812 451.009 271.579 440.972V344.094C271.579 338.151 270.526 333.594 268.421 330.425C265.097 325.274 259.391 320.387 251.302 315.764C258.726 311.67 263.601 308.104 265.928 305.066C269.695 299.915 271.579 294.17 271.579 287.83V204.226C267.812 194.057 260.997 188.972 251.136 188.972C247.368 188.972 244.266 190.094 241.828 192.34C240.609 190.358 240 188.113 240 185.604C240 182.962 240.609 180.519 241.828 178.274C243.158 176.028 244.931 174.113 247.147 172.528C252.244 168.83 258.061 166.981 264.598 166.981C271.247 166.981 277.341 169.16 282.881 173.519C288.643 169.16 295.069 166.981 302.161 166.981C309.917 166.981 316.676 169.425 322.438 174.311C334.737 168.104 346.981 165 359.169 165C371.357 165 382.438 166.453 392.41 169.358C402.493 172.132 411.579 176.094 419.668 181.245C437.285 192.34 448.255 206.736 452.576 224.434C455.014 234.208 460.277 241.472 468.366 246.226C459.391 253.623 453.85 262.075 451.745 271.585C447.091 292.453 437.673 306.057 423.49 312.396C444.321 319.264 457.895 335.509 464.211 361.132C466.427 370.245 471.69 377.708 480 383.519C471.468 389.198 465.762 397.783 462.881 409.274C460 420.764 454.903 431.132 447.59 440.377C440.388 449.491 431.967 457.019 422.327 462.962C403.712 474.321 382.715 480 359.335 480C345.374 480 332.909 477.028 321.939 471.085C316.177 475.708 309.64 478.019 302.327 478.019ZM363.823 302.887C373.573 302.887 380.499 300.113 384.598 294.566C388.92 288.887 391.08 279.113 391.08 265.245V219.481C391.08 211.425 387.535 204.623 380.443 199.075C374.238 194.189 368.476 191.745 363.158 191.745C357.95 191.745 353.629 192.538 350.194 194.123C346.87 195.575 343.878 197.623 341.219 200.264C335.568 205.811 332.742 212.481 332.742 220.274V302.887H363.823ZM400.554 196.302C404.321 206.34 406.205 221 406.205 240.283C406.205 268.679 404.654 287.104 401.551 295.557C406.205 294.5 410.139 289.151 413.352 279.509C414.571 275.943 415.457 272.179 416.011 268.217C416.676 264.255 417.175 261.217 417.507 259.104C417.95 256.858 418.56 254.943 419.335 253.358C420.997 250.057 423.989 247.547 428.31 245.83C423.878 244.113 421.108 242.264 420 240.283C418.56 238.038 417.396 233.943 416.51 228C415.623 222.057 414.571 217.236 413.352 213.538C412.133 209.708 410.803 206.604 409.363 204.226C406.593 199.472 403.657 196.83 400.554 196.302ZM287.535 421.557C293.075 419.047 296.122 410.396 296.676 395.604C297.341 380.811 297.673 360.34 297.673 334.189C297.673 308.038 297.618 290.67 297.507 282.085C297.507 273.368 297.452 266.368 297.341 261.085C297.008 245.5 295.734 236.123 293.518 232.953C291.413 229.651 289.418 227.472 287.535 226.415C287.535 272.377 286.87 298.528 285.54 304.868C283.989 310.151 280.222 313.915 274.238 316.16C280.886 318.934 284.654 322.302 285.54 326.264C286.87 332.604 287.535 355.783 287.535 395.802V421.557ZM332.742 422.349C332.742 431.594 335.679 439.189 341.551 445.132C347.202 450.679 353.961 453.453 361.828 453.453C369.474 453.453 375.9 451.472 381.108 447.509C391.08 439.717 396.066 430.802 396.066 420.764V362.717C396.066 350.698 392.798 341.651 386.26 335.575C380.72 330.425 373.463 327.849 364.488 327.849H332.742V422.349ZM407.202 333.991C409.861 341.123 411.191 357.632 411.191 383.519C411.191 416.274 410.194 435.491 408.199 441.17C410.526 440.642 412.909 437.274 415.346 431.066C417.784 424.858 419.501 418.453 420.499 411.849C421.496 405.245 422.161 400.755 422.493 398.377C422.936 396 423.546 393.887 424.321 392.038C426.094 388.075 429.086 385.236 433.296 383.519C426.648 381.009 422.715 375.991 421.496 368.462C420.388 360.934 419.28 355.123 418.172 351.028C417.064 346.934 415.9 343.698 414.681 341.321C412.576 337.094 410.083 334.651 407.202 333.991Z" fill="#B82929"/>
</svg>
